<?xml version="1.0" standalone="no"?>
<!DOCTYPE svg PUBLIC "-//W3C//DTD SVG 20010904//EN"
 "http://www.w3.org/TR/2001/REC-SVG-20010904/DTD/svg10.dtd">
<svg version="1.0" xmlns="http://www.w3.org/2000/svg"
 width="512.000000pt" height="512.000000pt" viewBox="0 0 512.000000 512.000000"
 preserveAspectRatio="xMidYMid meet">

<g transform="translate(0.000000,512.000000) scale(0.100000,-0.100000)"
fill="#000000" stroke="none">
<path d="M618 5110 c-64 -19 -87 -52 -353 -490 l-266 -440 3 -323 c3 -300 5
-327 26 -388 27 -82 83 -170 150 -234 l52 -50 0 -1266 0 -1267 -65 -4 c-69 -4
-101 -21 -139 -72 -20 -26 -21 -41 -21 -251 0 -246 1 -248 69 -299 l27 -21
2459 0 2459 0 27 21 c68 51 69 53 69 299 0 210 -1 225 -21 251 -38 51 -70 68
-139 72 l-65 4 0 1267 0 1266 52 50 c67 64 123 152 150 234 21 61 23 88 26
388 l3 323 -267 441 c-226 374 -273 445 -307 467 l-41 27 -1930 2 c-1062 1
-1943 -2 -1958 -7z m656 -162 c-14 -45 -253 -701 -257 -704 -2 -3 -184 -3
-404 -2 l-400 3 202 333 c111 183 211 346 224 362 l22 30 310 0 310 0 -7 -22z
m806 0 c0 -13 -5 -69 -12 -125 -11 -102 -11 -103 12 -128 28 -30 69 -32 101
-6 21 16 25 35 39 147 l16 129 324 0 324 0 42 -345 c24 -190 43 -353 43 -362
1 -17 -25 -18 -410 -18 l-412 0 7 48 c4 26 9 83 13 128 6 79 5 81 -22 102 -35
28 -57 28 -90 -1 -25 -21 -28 -34 -43 -150 l-15 -127 -410 0 c-323 0 -408 3
-405 13 3 6 62 171 133 365 l128 352 318 0 319 0 0 -22z m1725 -330 c71 -194
130 -359 133 -365 3 -10 -82 -13 -405 -13 l-410 0 -41 343 c-23 188 -42 352
-42 365 l0 22 319 0 318 0 128 -352z m696 292 c20 -30 120 -193 222 -362 l186
-308 -403 0 -404 0 -10 28 c-5 15 -64 177 -131 360 -67 183 -121 335 -121 337
0 3 141 4 313 3 l312 -3 36 -55z m-3513 -1098 l-3 -278 -34 -69 c-130 -264
-480 -321 -680 -110 -107 113 -121 170 -121 488 l0 247 421 0 420 0 -3 -278z
m1000 44 c1 -127 -2 -254 -8 -285 -15 -82 -56 -159 -119 -222 -166 -165 -423
-165 -591 1 -67 65 -106 145 -120 238 -11 76 -14 485 -3 495 4 4 194 6 422 5
l416 -3 3 -229z m992 -20 c0 -218 -3 -263 -18 -313 -104 -332 -533 -403 -744
-122 -68 92 -78 145 -78 435 l0 254 420 0 420 0 0 -254z m998 39 c1 -115 -2
-240 -7 -278 -12 -84 -56 -182 -110 -240 -54 -58 -159 -113 -242 -126 -221
-36 -437 117 -479 339 -11 59 -14 503 -3 513 4 4 194 6 422 5 l416 -3 3 -210z
m992 -32 c0 -269 -6 -311 -55 -402 -16 -28 -52 -74 -82 -102 -205 -194 -537
-131 -664 126 l-34 69 -3 278 -3 278 420 0 421 0 0 -247z m-3813 -593 c170
-182 443 -226 674 -109 64 32 161 117 203 178 l28 40 46 -61 c50 -67 134 -133
215 -171 237 -111 532 -37 689 171 l46 61 26 -37 c67 -98 188 -186 306 -223
90 -29 240 -29 330 0 119 38 221 111 297 214 l35 48 34 -49 c107 -160 334
-260 527 -233 39 6 82 14 95 17 l22 6 0 -1226 0 -1226 -1325 0 -1325 0 0 1020
c0 997 0 1022 -20 1060 -11 21 -34 49 -52 62 l-33 23 -612 0 c-602 0 -612 0
-639 -21 -44 -32 -66 -69 -75 -121 -4 -26 -8 -492 -8 -1035 l-1 -988 -125 0
-125 0 0 1226 0 1226 22 -6 c231 -64 492 26 619 213 l34 51 20 -27 c11 -15 43
-52 72 -83z m773 -1590 l0 -1010 -565 0 -565 0 0 1010 0 1010 565 0 565 0 0
-1010z m3040 -1335 l0 -175 -2410 0 -2410 0 0 175 0 175 2410 0 2410 0 0 -175z"/>
<path d="M2425 2801 c-42 -25 -70 -60 -84 -100 -8 -24 -11 -184 -11 -522 l0
-489 -36 0 c-51 0 -100 -50 -109 -111 -4 -24 -5 -134 -3 -245 3 -218 7 -233
65 -271 26 -17 94 -18 1158 -18 1061 0 1132 1 1162 18 59 32 63 51 63 307 0
187 -3 237 -15 260 -17 33 -61 60 -99 60 l-25 0 -3 503 c-3 445 -5 505 -20
532 -21 39 -56 71 -91 84 -19 8 -329 11 -975 11 -906 0 -948 -1 -977 -19z
m1905 -621 l0 -490 -165 0 c-152 0 -167 -2 -185 -20 -22 -22 -26 -60 -10 -90
18 -33 66 -40 291 -40 l219 0 0 -175 0 -175 -1072 2 -1073 3 -3 172 -2 172
726 3 726 3 24 28 c29 34 30 56 3 91 l-20 26 -652 2 -652 3 -3 475 c-1 261 0
481 3 488 3 9 198 12 925 12 l920 0 0 -490z"/>
</g>
</svg>
