<svg width="18" height="18" viewBox="0 0 18 18" fill="none" xmlns="http://www.w3.org/2000/svg">
<path d="M14.25 7.33334H3.75M11.3333 2.66667V5.00001M6.66667 2.66667V5.00001M7.25 10.8333L8.41667 12L11.0417 9.37501M6.55 14.3333H11.45C12.4301 14.3333 12.9201 14.3333 13.2945 14.1426C13.6238 13.9748 13.8915 13.7071 14.0593 13.3778C14.25 13.0035 14.25 12.5134 14.25 11.5333V6.63334C14.25 5.65325 14.25 5.1632 14.0593 4.78886C13.8915 4.45957 13.6238 4.19186 13.2945 4.02408C12.9201 3.83334 12.4301 3.83334 11.45 3.83334H6.55C5.56991 3.83334 5.07986 3.83334 4.70552 4.02408C4.37623 4.19186 4.10852 4.45957 3.94074 4.78886C3.75 5.1632 3.75 5.65325 3.75 6.63334V11.5333C3.75 12.5134 3.75 13.0035 3.94074 13.3778C4.10852 13.7071 4.37623 13.9748 4.70552 14.1426C5.07986 14.3333 5.56991 14.3333 6.55 14.3333Z" stroke="#FEFEFE" stroke-width="1.2" stroke-linecap="round" stroke-linejoin="round"/>
</svg>
