<svg width="73" height="73" viewBox="0 0 73 73" fill="none" xmlns="http://www.w3.org/2000/svg">
<g clip-path="url(#clip0_640_24610)">
<path d="M63.0931 54.0243C61.3113 54.0243 59.5209 53.9131 57.7505 54.0585C55.9801 54.2039 54.5262 55.296 52.8498 55.7693C44.5395 58.153 36.7024 57.1294 29.3357 52.6157C28.8482 52.3306 28.6172 52.3506 28.2381 52.7469C22.4508 58.8107 16.6539 64.8641 10.8476 70.9071C8.85199 72.9857 6.15789 73.5389 3.72038 72.4354C2.79298 72.031 1.97937 71.4045 1.35135 70.6112C0.723331 69.8179 0.30021 68.8822 0.11933 67.8867C-0.061549 66.8911 0.00537574 65.8663 0.314198 64.9028C0.62302 63.9392 1.16424 63.0665 1.8901 62.3616C4.67543 59.6072 7.53488 56.9241 10.3601 54.2125C13.6881 51.0228 17.0141 47.8369 20.3382 44.6548C20.6518 44.3697 20.6975 44.1701 20.4523 43.7823C17.3058 38.8894 15.7512 33.1422 16.002 27.3301C16.083 24.8415 16.5168 22.3771 17.2906 20.0107C17.4902 19.409 17.3277 19.3663 16.7974 19.3691C13.3536 19.3862 9.90967 19.3862 6.46579 19.3691C5.3197 19.374 4.2098 18.968 3.33737 18.2247C2.46494 17.4813 1.88775 16.4498 1.7105 15.3174C1.29712 12.9194 2.78243 10.4957 5.13157 9.89981C5.74736 9.74299 5.92697 9.47496 6.09232 8.9161C6.9704 5.9393 8.92611 3.95477 11.9196 3.16495C15.0384 2.33806 17.7696 3.19631 20.0218 5.50019C20.1612 5.66716 20.3357 5.80146 20.5327 5.8936C20.7298 5.98573 20.9446 6.03345 21.1622 6.03339C22.4299 6.02823 23.6579 6.47505 24.626 7.29369C25.0223 7.633 25.2247 7.5275 25.5525 7.23666C29.3873 3.74428 34.1312 1.40754 39.2368 0.496093C47.5757 -0.980901 55.2018 0.815443 61.9128 5.99918C67.8997 10.6126 71.4833 16.7402 72.6465 24.1936C73.6699 30.7517 72.4725 36.959 69.1712 42.7273C68.7977 43.3859 69.2824 44.7546 69.9951 45.0483C72.0763 45.9037 73.3307 48.0621 72.9287 50.1037C72.464 52.4817 70.628 54.01 68.2247 54.01L63.0931 54.0243Z" fill="#7C7CA1"/>
<path d="M48.0747 53.8903C46.4847 54.1588 44.8693 54.2459 43.2596 54.1497C38.7352 53.8931 34.513 52.6271 30.7156 50.1379C24.4436 46.0405 20.5636 40.3207 19.2408 32.9301C16.7833 19.2037 25.9204 5.94499 39.6104 3.31321C52.9554 0.747 66.0838 9.09572 69.3538 22.3003C70.9503 28.75 70.115 34.9346 66.999 40.8083C66.7737 41.2332 66.6112 41.4014 66.1066 41.1248C65.4395 40.7599 64.6584 40.7256 63.9143 40.6715C63.843 40.412 64.0169 40.2922 64.1081 40.1411C71.9709 26.8025 64.55 9.63748 49.4431 6.2729C44.112 5.08389 39.0089 5.77676 34.1281 8.20325C33.1845 8.67087 32.8595 9.42078 33.2415 10.1992C33.6235 10.9776 34.4531 11.2171 35.3683 10.7695C38.3761 9.23915 41.7161 8.47797 45.0898 8.55397C54.0644 8.71649 62.2465 15.5597 63.997 24.3589C65.0017 29.1354 64.2325 34.1144 61.8331 38.3647C61.6022 38.7867 61.434 38.8808 60.9579 38.6128C59.8488 37.9831 58.6082 37.6204 57.3345 37.5536C56.0609 37.4868 54.7892 37.7177 53.6202 38.228C52.4513 38.7382 51.4173 39.5138 50.6002 40.4933C49.7831 41.4727 49.2054 42.6291 48.9129 43.8707C48.8302 44.2157 48.7304 44.3868 48.357 44.4723C46.4982 44.9029 45.258 46.0377 44.7449 47.8939C44.6109 48.3815 44.4085 48.4784 43.9352 48.4642C34.8608 48.3131 26.6559 41.4071 24.9369 32.5109C24.0337 28.0901 24.659 23.4935 26.7101 19.4746C27.1349 18.6192 26.9325 17.6754 26.2426 17.3047C25.4785 16.897 24.6803 17.1707 24.2469 18.0318C22.9071 20.6188 22.0785 23.4399 21.8066 26.3406C21.326 30.7796 22.2218 35.259 24.3724 39.1717C28.0244 45.8495 33.6406 49.8243 41.167 51.0674C42.2904 51.2578 43.4289 51.3446 44.5681 51.3269C44.8304 51.3269 45.0528 51.3098 45.2181 51.6121C45.7883 52.6813 46.7177 53.3827 48.0747 53.8903Z" fill="#F7F6F8"/>
<path d="M58.8083 51.1759H49.6056C48.2828 51.1759 47.399 50.3804 47.3933 49.2C47.3876 48.0195 48.2714 47.224 49.5971 47.204C51.0653 47.1812 51.4587 46.8191 51.5642 45.3906C51.6359 44.2705 52.0609 43.202 52.7781 42.3387C53.4952 41.4754 54.4676 40.8618 55.5554 40.5861C56.61 40.2878 57.7317 40.3288 58.7616 40.7034C59.7916 41.078 60.6776 41.7671 61.2943 42.6732C61.8417 43.4916 62.4603 43.7824 63.4382 43.6256C65.2143 43.3405 66.5314 44.3441 66.8592 46.1091C67.0674 47.204 67.3524 47.4663 68.49 47.6232C68.9409 47.675 69.3562 47.8936 69.6542 48.236C69.9522 48.5784 70.1115 49.0198 70.1007 49.4737C70.0799 49.9431 69.8755 50.3856 69.5315 50.7056C69.1875 51.0257 68.7315 51.1977 68.2619 51.1845C65.1259 51.1816 61.9671 51.1759 58.8083 51.1759Z" fill="#F7F6F8"/>
<path d="M6.46592 70.143C4.84661 70.143 3.64923 69.3189 3.13607 68.0358C2.86585 67.4108 2.79891 66.7166 2.94471 66.0514C3.09052 65.3863 3.44169 64.7837 3.94858 64.3291C6.40605 61.9511 8.88348 59.593 11.3609 57.2293C13.023 55.6354 14.7022 54.0586 16.3414 52.4419C16.7063 52.0826 16.8802 52.1225 17.1967 52.4647C18.3142 53.628 19.4546 54.7685 20.6178 55.8863C20.9028 56.1714 20.9028 56.3083 20.6178 56.5963C16.6493 60.7231 12.6894 64.8585 8.73808 69.0024C8.15529 69.6604 7.34167 70.0688 6.46592 70.143Z" fill="#F7F6F8"/>
<path d="M12.2932 16.5377C10.4401 16.5377 8.587 16.5377 6.73677 16.5377C5.3883 16.5377 4.45605 15.6823 4.45605 14.5218C4.45605 13.3613 5.41681 12.5601 6.70541 12.5458C8.1166 12.5458 8.45586 12.2208 8.62406 10.7808C8.94336 8.02643 10.6026 6.19302 13.3394 5.79383C15.4662 5.48303 17.2167 6.30707 18.4254 8.0749C18.9956 8.88753 19.6285 9.16126 20.538 8.9303C20.8853 8.8533 21.2454 8.8533 21.5928 8.9303C22.0717 9.02155 22.5963 9.14986 22.8443 9.52908C23.2092 10.0994 22.4965 10.2989 22.2513 10.6211C20.9217 12.3166 19.775 14.1478 18.8303 16.0843C18.7855 16.2286 18.6918 16.3528 18.5654 16.4356C18.439 16.5183 18.2877 16.5544 18.1375 16.5377C16.1903 16.5206 14.2546 16.5377 12.2932 16.5377Z" fill="#F7F6F8"/>
<path d="M22.4422 46.5823C23.6424 48.0198 24.9696 49.3463 26.4078 50.5456C25.3187 51.6862 24.2468 52.7868 23.1862 53.9045C22.9924 54.1098 22.8783 54.164 22.6446 53.9245C21.4662 52.7174 20.2755 51.5265 19.0724 50.3517C18.8415 50.1265 18.8671 50.0124 19.0724 49.8071C20.2014 48.7578 21.3075 47.6772 22.4422 46.5823Z" fill="#F7F6F8"/>
<path d="M37.3666 29.9391C37.0854 29.943 36.8092 29.8635 36.573 29.7107C36.3368 29.5579 36.1511 29.3387 36.0392 29.0805C35.9273 28.8224 35.8943 28.5369 35.9443 28.2601C35.9944 27.9832 36.1252 27.7274 36.3203 27.5247C36.5154 27.322 36.7661 27.1816 37.0408 27.1212C37.3155 27.0607 37.602 27.0829 37.8641 27.185C38.1263 27.287 38.3524 27.4644 38.5139 27.6947C38.6755 27.925 38.7653 28.198 38.7721 28.4792C38.7767 28.6676 38.7438 28.8551 38.6754 29.0307C38.6071 29.2063 38.5046 29.3667 38.3739 29.5024C38.2432 29.6382 38.0869 29.7467 37.914 29.8216C37.7411 29.8966 37.555 29.9365 37.3666 29.9391Z" fill="#7C7CA1"/>
<path d="M44.4569 29.9391C44.1758 29.9358 43.9019 29.8493 43.6697 29.6906C43.4376 29.5319 43.2575 29.3081 43.1522 29.0473C43.047 28.7865 43.0212 28.5004 43.0781 28.225C43.135 27.9496 43.2721 27.6971 43.4721 27.4995C43.6721 27.3018 43.9261 27.1677 44.2022 27.1141C44.4782 27.0604 44.7639 27.0896 45.0234 27.198C45.2829 27.3064 45.5045 27.4891 45.6604 27.7232C45.8163 27.9573 45.8995 28.2322 45.8995 28.5135C45.8995 28.7021 45.8621 28.8889 45.7894 29.063C45.7167 29.2371 45.6101 29.395 45.4759 29.5277C45.3418 29.6603 45.1826 29.7649 45.0077 29.8356C44.8328 29.9062 44.6456 29.9414 44.4569 29.9391Z" fill="#7C7CA1"/>
<path d="M51.6326 27.0877C51.9131 27.0939 52.1855 27.1828 52.4158 27.3431C52.646 27.5035 52.8239 27.7282 52.927 27.9892C53.0301 28.2502 53.0538 28.5358 52.9954 28.8103C52.9369 29.0847 52.7987 29.3358 52.5981 29.5321C52.3976 29.7283 52.1436 29.861 51.868 29.9136C51.5924 29.9661 51.3074 29.9361 51.0487 29.8273C50.7901 29.7185 50.5693 29.5358 50.414 29.3021C50.2587 29.0684 50.1758 28.794 50.1758 28.5134C50.1757 28.3235 50.2136 28.1355 50.2872 27.9605C50.3608 27.7854 50.4686 27.6269 50.6043 27.4941C50.74 27.3613 50.9009 27.2569 51.0775 27.1871C51.254 27.1174 51.4428 27.0836 51.6326 27.0877Z" fill="#7C7CA1"/>
<path d="M29.3642 11.9756C29.5526 11.9756 29.7391 12.013 29.913 12.0855C30.0869 12.158 30.2447 12.2643 30.3772 12.3982C30.5098 12.5321 30.6145 12.691 30.6853 12.8656C30.7561 13.0402 30.7916 13.2271 30.7897 13.4156C30.7749 13.7955 30.6133 14.155 30.339 14.4182C30.0646 14.6815 29.6988 14.828 29.3186 14.827C28.9506 14.8089 28.6033 14.6516 28.347 14.3868C28.0908 14.1221 27.9448 13.7697 27.9388 13.4013C27.9349 13.213 27.9691 13.0259 28.0394 12.8512C28.1096 12.6764 28.2145 12.5177 28.3476 12.3846C28.4808 12.2514 28.6395 12.1465 28.8142 12.0763C28.9889 12.006 29.176 11.9718 29.3642 11.9756Z" fill="#7C7CA1"/>
</g>
<defs>
<clipPath id="clip0_640_24610">
<rect width="73" height="73" fill="white"/>
</clipPath>
</defs>
</svg>
