<svg width="14" height="14" viewBox="0 0 14 14" fill="none" xmlns="http://www.w3.org/2000/svg">
<path d="M13.0317 5.44258L11.865 4.85925C11.6492 4.75425 11.3808 4.83591 11.2758 5.05175C11.165 5.27341 11.2525 5.53591 11.4683 5.64091L12.3958 6.10175V8.89591L10.2083 8.90175V2.91675C10.2083 1.75008 9.42667 1.16675 8.45834 1.16675H3.79167C2.82334 1.16675 2.04167 1.75008 2.04167 2.91675V12.3959H1.16667C0.927505 12.3959 0.729172 12.5942 0.729172 12.8334C0.729172 13.0726 0.927505 13.2709 1.16667 13.2709H11.0833C11.3225 13.2709 11.5208 13.0726 11.5208 12.8334C11.5208 12.5942 11.3225 12.3959 11.0833 12.3959H10.2083V9.77675L12.8333 9.77091C13.0783 9.77091 13.2708 9.57258 13.2708 9.33341V5.83341C13.2708 5.67008 13.1775 5.51841 13.0317 5.44258ZM3.50001 4.01925C3.50001 3.20841 3.99584 2.91675 4.6025 2.91675H7.65334C8.25417 2.91675 8.75 3.20841 8.75 4.01925V4.73675C8.75 5.54175 8.25417 5.83341 7.6475 5.83341H4.6025C3.99584 5.83341 3.50001 5.54175 3.50001 4.73091V4.01925ZM3.79167 7.14591H5.54167C5.78084 7.14591 5.97917 7.34425 5.97917 7.58341C5.97917 7.82258 5.78084 8.02091 5.54167 8.02091H3.79167C3.55251 8.02091 3.35417 7.82258 3.35417 7.58341C3.35417 7.34425 3.55251 7.14591 3.79167 7.14591Z" fill="#89C7C4"/>
</svg>
