<svg width="24" height="24" viewBox="0 0 24 24" fill="none" xmlns="http://www.w3.org/2000/svg">
<path d="M14.5602 16.8662C15.2222 16.4694 15.7886 15.9315 16.219 15.2909C16.3952 15.0228 16.5468 14.7392 16.6719 14.4438C16.7477 14.2656 16.7464 14.2636 16.5542 14.2636C15.1796 14.2636 13.8071 14.2636 12.4366 14.2636C12.1659 14.2636 12.2005 14.2922 12.2005 14.0229C12.2005 13.0441 12.2005 12.0646 12.1958 11.0852C12.1958 10.9356 12.239 10.9036 12.382 10.9043C14.9781 10.9083 17.574 10.9083 20.1696 10.9043C20.3066 10.9043 20.3645 10.9282 20.3884 11.0858C20.7848 13.6835 20.1439 15.992 18.4657 18.0112C18.1301 18.4232 17.746 18.7931 17.3217 19.113C17.2412 19.1183 17.1887 19.0644 17.1348 19.0192C16.3167 18.343 15.4907 17.676 14.6739 17.0011C14.6261 16.9666 14.5649 16.938 14.5602 16.8662Z" fill="#4481F5"/>
<path d="M10.4527 4.14659C12.9907 3.69842 15.2866 4.27958 17.3238 5.86679C17.4123 5.93328 17.4189 5.96852 17.3238 6.04366C16.4689 6.73653 15.617 7.43316 14.7678 8.13357C14.745 8.1597 14.713 8.17616 14.6784 8.17962C14.6438 8.18307 14.6092 8.17327 14.5816 8.15218C13.9404 7.77211 13.2231 7.53853 12.481 7.46817C11.7389 7.39782 10.9904 7.49243 10.2892 7.74522C9.58793 7.99802 8.95131 8.40274 8.4249 8.9304C7.89849 9.45806 7.49532 10.0956 7.24429 10.7973C7.23765 10.8126 7.2294 10.827 7.21968 10.8405C7.13123 10.8492 7.07868 10.786 7.02016 10.7388C6.28412 10.1408 5.5503 9.53991 4.81869 8.93615C4.69299 8.83308 4.54201 8.75395 4.46021 8.60368C4.81174 7.89483 5.2705 7.24441 5.82032 6.67535C7.09465 5.33018 8.63368 4.46576 10.4527 4.14659Z" fill="#EA4334"/>
<path d="M11.1821 20.9519C8.62942 20.6793 6.59623 19.489 5.07715 17.4197C4.86575 17.1363 4.68012 16.8346 4.52246 16.5181C4.53842 16.4117 4.63353 16.3711 4.70204 16.3146C5.4802 15.6823 6.25304 15.0439 7.02987 14.4116C7.09638 14.355 7.16289 14.2732 7.26664 14.2786C7.62912 15.1929 8.17849 15.9762 8.98458 16.5447C10.7138 17.7628 12.5349 17.8819 14.4257 16.935L14.5587 16.8685C15.4708 17.611 16.3822 18.3542 17.293 19.098C17.3017 19.1046 17.3108 19.1106 17.3202 19.116C16.7659 19.5821 16.1469 19.9653 15.4826 20.2537C14.1375 20.8689 12.6515 21.1107 11.1807 20.9539" fill="#4DAA52"/>
<path d="M7.26876 14.2756L4.52258 16.5177C4.09403 15.7502 3.79791 14.916 3.64665 14.0501C3.3078 12.2548 3.56079 10.3979 4.36762 8.75856C4.39355 8.7047 4.42747 8.65416 4.4574 8.60229L6.30703 10.1031C6.61098 10.3498 6.91559 10.5945 7.21954 10.8405C7.06262 11.3397 6.97315 11.8576 6.95351 12.3805C6.94389 13.026 7.05068 13.6679 7.26876 14.2756Z" fill="#F5BD41"/>
</svg>
