<svg width="15" height="15" viewBox="0 0 15 15" fill="none" xmlns="http://www.w3.org/2000/svg">
<path d="M4.58685 5.90199C5.05085 6.8684 5.68337 7.77416 6.48443 8.57522C7.28548 9.37627 8.19124 10.0088 9.15765 10.4728C9.24078 10.5127 9.28234 10.5327 9.33494 10.548C9.52184 10.6025 9.75135 10.5633 9.90963 10.45C9.95417 10.4181 9.99228 10.38 10.0685 10.3038C10.3016 10.0707 10.4181 9.95419 10.5353 9.878C10.9772 9.59067 11.5469 9.59067 11.9889 9.878C12.106 9.95419 12.2226 10.0707 12.4556 10.3038L12.5856 10.4337C12.9398 10.788 13.117 10.9651 13.2132 11.1554C13.4046 11.5338 13.4046 11.9806 13.2132 12.359C13.117 12.5492 12.9399 12.7264 12.5856 13.0807L12.4805 13.1858C12.1274 13.5389 11.9508 13.7154 11.7108 13.8502C11.4445 13.9998 11.0308 14.1074 10.7253 14.1065C10.45 14.1057 10.2619 14.0523 9.8856 13.9455C7.86333 13.3715 5.95509 12.2885 4.36311 10.6965C2.77112 9.10455 1.68814 7.19631 1.11416 5.17405C1.00735 4.79775 0.953949 4.6096 0.953131 4.3343C0.952222 4.02882 1.0598 3.61516 1.20941 3.34882C1.34424 3.1088 1.52078 2.93226 1.87386 2.57918L1.97895 2.47409C2.33325 2.11979 2.5104 1.94265 2.70065 1.84642C3.07903 1.65504 3.52587 1.65504 3.90424 1.84642C4.0945 1.94265 4.27164 2.11979 4.62594 2.47409L4.75585 2.604C4.98892 2.83707 5.10546 2.95361 5.18165 3.07079C5.46898 3.51272 5.46898 4.08244 5.18165 4.52437C5.10546 4.64155 4.98892 4.75809 4.75585 4.99116C4.67964 5.06737 4.64154 5.10547 4.60965 5.15001C4.4963 5.3083 4.45717 5.5378 4.51165 5.72471C4.52698 5.7773 4.54694 5.81886 4.58685 5.90199Z" stroke="white" stroke-width="1.53846" stroke-linecap="round" stroke-linejoin="round"/>
</svg>
