<svg width="26" height="26" viewBox="0 0 26 26" fill="none" xmlns="http://www.w3.org/2000/svg">
<path d="M23.8333 18.3299V21.5799C23.8345 21.8817 23.7727 22.1803 23.6519 22.4567C23.531 22.7332 23.3537 22.9813 23.1314 23.1853C22.9091 23.3893 22.6466 23.5446 22.3608 23.6412C22.075 23.7379 21.7721 23.7738 21.4716 23.7466C18.138 23.3844 14.9359 22.2453 12.1225 20.4208C9.50495 18.7575 7.28575 16.5383 5.62247 13.9208C3.79161 11.0946 2.65223 7.87685 2.29663 4.52828C2.26956 4.2287 2.30517 3.92677 2.40118 3.6417C2.49719 3.35664 2.6515 3.09469 2.8543 2.87253C3.05709 2.65037 3.30392 2.47288 3.57908 2.35134C3.85423 2.2298 4.15167 2.16689 4.45247 2.16661H7.70247C8.22822 2.16143 8.73791 2.34761 9.13654 2.69044C9.53518 3.03326 9.79555 3.50934 9.86913 4.02994C10.0063 5.07001 10.2607 6.09123 10.6275 7.07411C10.7732 7.46186 10.8048 7.88327 10.7184 8.2884C10.632 8.69353 10.4312 9.0654 10.14 9.35994L8.76414 10.7358C10.3063 13.448 12.552 15.6936 15.2641 17.2358L16.64 15.8599C16.9345 15.5687 17.3064 15.3679 17.7115 15.2815C18.1166 15.1951 18.5381 15.2267 18.9258 15.3724C19.9087 15.7392 20.9299 15.9936 21.97 16.1308C22.4962 16.205 22.9768 16.4701 23.3204 16.8756C23.6639 17.281 23.8465 17.7986 23.8333 18.3299Z" stroke="white" stroke-width="2" stroke-linecap="round" stroke-linejoin="round"/>
</svg>
