<svg width="24" height="24" viewBox="0 0 24 24" fill="none" xmlns="http://www.w3.org/2000/svg">
<path d="M19.5 10.0714C19.5 10.8041 19.258 11.6746 18.8123 12.6391C18.37 13.5963 17.749 14.5994 17.0437 15.5843C15.6329 17.5544 13.9291 19.3909 12.7775 20.557C12.3428 20.9972 11.6572 20.9972 11.2225 20.557C10.0709 19.3909 8.36715 17.5544 6.95634 15.5843C6.25104 14.5994 5.63003 13.5963 5.18769 12.6391C4.74195 11.6746 4.5 10.8041 4.5 10.0714C4.5 5.7245 7.88462 2.25 12 2.25C16.1154 2.25 19.5 5.7245 19.5 10.0714Z" stroke="white" stroke-width="1.5"/>
<path d="M14.25 9.74982C14.25 10.9925 13.2426 11.9998 12 11.9998C10.7574 11.9998 9.75 10.9925 9.75 9.74982C9.75 8.50718 10.7574 7.49982 12 7.49982C13.2426 7.49982 14.25 8.50718 14.25 9.74982Z" stroke="white" stroke-width="1.5"/>
</svg>
