<?xml version="1.0" standalone="no"?>
<!DOCTYPE svg PUBLIC "-//W3C//DTD SVG 20010904//EN"
 "http://www.w3.org/TR/2001/REC-SVG-20010904/DTD/svg10.dtd">
<svg version="1.0" xmlns="http://www.w3.org/2000/svg"
 width="512.000000pt" height="512.000000pt" viewBox="0 0 512.000000 512.000000"
 preserveAspectRatio="xMidYMid meet">

<g transform="translate(0.000000,512.000000) scale(0.100000,-0.100000)"
fill="#000000" stroke="none">
<path d="M651 5105 c-149 -33 -254 -83 -363 -175 -117 -97 -209 -237 -255
-385 l-28 -90 0 -1895 0 -1895 28 -90 c80 -259 283 -462 542 -542 l90 -28
1895 0 1895 0 90 28 c259 80 462 283 542 542 l28 90 0 1895 0 1895 -28 90
c-80 259 -283 462 -542 542 l-90 28 -787 3 -788 3 0 -161 0 -160 738 0 c800 0
816 -1 923 -56 69 -34 169 -134 203 -203 58 -113 56 -31 56 -1981 0 -1950 2
-1868 -56 -1981 -34 -69 -134 -169 -203 -203 -113 -58 -31 -56 -1981 -56
-1950 0 -1868 -2 -1981 56 -69 34 -169 134 -203 203 -58 113 -56 31 -56 1981
0 1950 -2 1868 56 1981 34 69 134 169 203 203 92 47 161 56 444 56 l257 0 0
160 0 160 -282 -1 c-201 0 -301 -5 -347 -14z"/>
<path d="M1600 4960 l0 -160 160 0 160 0 0 160 0 160 -160 0 -160 0 0 -160z"/>
<path d="M2240 4960 l0 -160 160 0 160 0 0 160 0 160 -160 0 -160 0 0 -160z"/>
<path d="M2903 2808 l-1143 -1143 -345 345 -345 345 -112 -113 -113 -112 458
-458 457 -457 1257 1257 1258 1258 -110 110 c-60 60 -112 110 -115 110 -3 0
-519 -514 -1147 -1142z"/>
</g>
</svg>
